<svg xmlns="http://www.w3.org/2000/svg" width="760" height="250" viewBox="0 0 760 250" xmlns:c2pa="http://c2pa.org/manifest"><metadata><c2pa:manifest>AAAWgmp1bWIAAAAeanVtZGMycGEAEQAQgAAAqgA4m3EDYzJwYQAAABZcanVtYgAAAEdqdW1kYzJtYQARABCAAACqADibcQN1cm46YzJwYTowOGE1MzdiZi0yMDY2LTRhZTUtOWNkMS0yMDg5OGE2Y2RjZjMAAAADl2p1bWIAAAApanVtZGMyYXMAEQAQgAAAqgA4m3EDYzJwYS5hc3NlcnRpb25zAAAAALxqdW1iAAAARGp1bWRjYm9yABEAEIAAAKoAOJtxE2MycGEuaW5ncmVkaWVudC52MwAAAAAYYzJzaNKe6DF/a5IwfiM6MMawRKgAAABwY2JvcqNpZGM6Zm9ybWF0bWltYWdlL3N2Zyt4bWxqaW5zdGFuY2VJRHgseG1wOmlpZDphYTdhMWMzZS03NjliLTQ1MWItOTE4My1hMjFiYzA5YTczYTRscmVsYXRpb25zaGlwaHBhcmVudE9mAAAB4mp1bWIAAABBanVtZGNib3IAEQAQgAAAqgA4m3ETYzJwYS5hY3Rpb25zLnYyAAAAABhjMnNoL2Tt5i/nFxXgJpjD8Uqa1QAAAZljYm9yomdhY3Rpb25zgqJmYWN0aW9ua2MycGEub3BlbmVkanBhcmFtZXRlcnOha2luZ3JlZGllbnRzgaJjdXJseC1zZWxmI2p1bWJmPWMycGEuYXNzZXJ0aW9ucy9jMnBhLmluZ3JlZGllbnQudjNkaGFzaFggq8N3gmr4+szQ4Y6s1zcsnuSvSg7ZyiMbJX+yPItMv0ykZmFjdGlvbngdY29tLmFudGhyb3BpYy5jbGF1ZGUucHJvdmlkZWRqcGFyYW1ldGVyc6F4H2NvbS5hbnRocm9waWMub3JpZ2luLWNvbmZpZGVuY2VndW5rbm93bmtkZXNjcmlwdGlvbnhmQ2xhdWRlIHByb3ZpZGVkIHRoaXMgZmlsZSBhdCB0aGUgcmVxdWVzdCBvZiBhIHVzZXIgYW5kIG1heSBoYXZlIGNyZWF0ZWQgb3IgbW9kaWZpZWQgdGhlIGZpbGUgY29udGVudHMubXNvZnR3YXJlQWdlbnShZG5hbWVmQ2xhdWRlcmFsbEFjdGlvbnNJbmNsdWRlZPUAAADIanVtYgAAAEBqdW1kY2JvcgARABCAAACqADibcRNjMnBhLmhhc2guZGF0YQAAAAAYYzJzaBedJeU8I2NUMYhxJJaUDw8AAACAY2JvcqVjYWxnZnNoYTI1NmNwYWRNAAAAAAAAAAAAAAAAAGRoYXNoWCA15NPkh5Jv+Yh86H/HECXBsELTUy0sxXQGDyVKUaBTpmRuYW1lbmp1bWJmIG1hbmlmZXN0amV4Y2x1c2lvbnOBomVzdGFydBiWZmxlbmd0aBkeBAAAAj5qdW1iAAAAJ2p1bWRjMmNsABEAEIAAAKoAOJtxA2MycGEuY2xhaW0udjIAAAACD2Nib3KlY2FsZ2ZzaGEyNTZpc2lnbmF0dXJleE1zZWxmI2p1bWJmPS9jMnBhL3VybjpjMnBhOjA4YTUzN2JmLTIwNjYtNGFlNS05Y2QxLTIwODk4YTZjZGNmMy9jMnBhLnNpZ25hdHVyZWppbnN0YW5jZUlEeCx4bXA6aWlkOmJlNGU5YjEzLTE1YzQtNDkwOC05MjY1LTEzM2U3MzcwYmU5YXJjcmVhdGVkX2Fzc2VydGlvbnODomN1cmx4LXNlbGYjanVtYmY9YzJwYS5hc3NlcnRpb25zL2MycGEuaW5ncmVkaWVudC52M2RoYXNoWCCrw3eCavj6zNDhjqzXNyye5K9KDtnKIxslf7I8i0y/TKJjdXJseCpzZWxmI2p1bWJmPWMycGEuYXNzZXJ0aW9ucy9jMnBhLmFjdGlvbnMudjJkaGFzaFggDWrvcgzy4kb20vAqOO1nhbxWRpkF7EjEb47pxQvp3OyiY3VybHgpc2VsZiNqdW1iZj1jMnBhLmFzc2VydGlvbnMvYzJwYS5oYXNoLmRhdGFkaGFzaFggNIPIA4N3PabGaMO5CnnOu9j3XxRV6Y6jTHoSwECqLHx0Y2xhaW1fZ2VuZXJhdG9yX2luZm+jZG5hbWVvQW50aHJvcGljIEZpbGVzZ3ZlcnNpb25lMS4wLjBrc3BlY1ZlcnNpb25lMi40LjAAABA4anVtYgAAAChqdW1kYzJjcwARABCAAACqADibcQNjMnBhLnNpZ25hdHVyZQAAABAIY2JvctKEWQISogEmGCFZAgowggIGMIIBjaADAgECAhRA5aAK7sI50L64g/oGQgU9Z1UTADAKBggqhkjOPQQDAzBJMRcwFQYDVQQKEw5BbnRocm9waWMsIFBCQzEuMCwGA1UEAxMlQW50aHJvcGljIENvbnRlbnQgQ3JlZGVudGlhbHMgUm9vdCBDQTAeFw0yNjA4MDcxODQzNTZaFw0yODA4MDYxOTQzNTZaMEQxFzAVBgNVBAoTDkFudGhyb3BpYywgUEJDMSkwJwYDVQQDEyBBbnRocm9waWMgQ2xhdWRlIENvbnRlbnQgU2lnbmluZzBZMBMGByqGSM49AgEGCCqGSM49AwEHA0IABJh6CmvLUBgFFNU0vUKlOVtE6djd17L5SuwX0LemFisBM3dkd/3cyjxFA3Qo5S46fX0/ihY0VZ7mfb9KF703t5OjWDBWMA4GA1UdDwEB/wQEAwIHgDAVBgNVHSUEDjAMBgorBgEEAYPoXgIBMAwGA1UdEwEB/wQCMAAwHwYDVR0jBBgwFoAUzlHiBIFOZFsj+OPEz5o+nMHXXMIwCgYIKoZIzj0EAwMDZwAwZAIwMXMdFJ4BetLLVY7ORuE9noqbbAZOZn/aArXyTwFAZfKrPzxF2vPoJNf1+UCdg1XGAjBwX1zd9WGqYkqmL5SFqw1QySjr1zJfpJM9+1rdDwSPLMOPOjKuiXjoU/pUUeG9RwmhY3BhZFkNngAAAAAAAAAAAAAAAAAAAAAAAAAAAAAAAAAAAAAAAAAAAAAAAAAAAAAAAAAAAAAAAAAAAAAAAAAAAAAAAAAAAAAAAAAAAAAAAAAAAAAAAAAAAAAAAAAAAAAAAAAAAAAAAAAAAAAAAAAAAAAAAAAAAAAAAAAAAAAAAAAAAAAAAAAAAAAAAAAAAAAAAAAAAAAAAAAAAAAAAAAAAAAAAAAAAAAAAAAAAAAAAAAAAAAAAAAAAAAAAAAAAAAAAAAAAAAAAAAAAAAAAAAAAAAAAAAAAAAAAAAAAAAAAAAAAAAAAAAAAAAAAAAAAAAAAAAAAAAAAAAAAAAAAAAAAAAAAAAAAAAAAAAAAAAAAAAAAAAAAAAAAAAAAAAAAAAAAAAAAAAAAAAAAAAAAAAAAAAAAAAAAAAAAAAAAAAAAAAAAAAAAAAAAAAAAAAAAAAAAAAAAAAAAAAAAAAAAAAAAAAAAAAAAAAAAAAAAAAAAAAAAAAAAAAAAAAAAAAAAAAAAAAAAAAAAAAAAAAAAAAAAAAAAAAAAAAAAAAAAAAAAAAAAAAAAAAAAAAAAAAAAAAAAAAAAAAAAAAAAAAAAAAAAAAAAAAAAAAAAAAAAAAAAAAAAAAAAAAAAAAAAAAAAAAAAAAAAAAAAAAAAAAAAAAAAAAAAAAAAAAAAAAAAAAAAAAAAAAAAAAAAAAAAAAAAAAAAAAAAAAAAAAAAAAAAAAAAAAAAAAAAAAAAAAAAAAAAAAAAAAAAAAAAAAAAAAAAAAAAAAAAAAAAAAAAAAAAAAAAAAAAAAAAAAAAAAAAAAAAAAAAAAAAAAAAAAAAAAAAAAAAAAAAAAAAAAAAAAAAAAAAAAAAAAAAAAAAAAAAAAAAAAAAAAAAAAAAAAAAAAAAAAAAAAAAAAAAAAAAAAAAAAAAAAAAAAAAAAAAAAAAAAAAAAAAAAAAAAAAAAAAAAAAAAAAAAAAAAAAAAAAAAAAAAAAAAAAAAAAAAAAAAAAAAAAAAAAAAAAAAAAAAAAAAAAAAAAAAAAAAAAAAAAAAAAAAAAAAAAAAAAAAAAAAAAAAAAAAAAAAAAAAAAAAAAAAAAAAAAAAAAAAAAAAAAAAAAAAAAAAAAAAAAAAAAAAAAAAAAAAAAAAAAAAAAAAAAAAAAAAAAAAAAAAAAAAAAAAAAAAAAAAAAAAAAAAAAAAAAAAAAAAAAAAAAAAAAAAAAAAAAAAAAAAAAAAAAAAAAAAAAAAAAAAAAAAAAAAAAAAAAAAAAAAAAAAAAAAAAAAAAAAAAAAAAAAAAAAAAAAAAAAAAAAAAAAAAAAAAAAAAAAAAAAAAAAAAAAAAAAAAAAAAAAAAAAAAAAAAAAAAAAAAAAAAAAAAAAAAAAAAAAAAAAAAAAAAAAAAAAAAAAAAAAAAAAAAAAAAAAAAAAAAAAAAAAAAAAAAAAAAAAAAAAAAAAAAAAAAAAAAAAAAAAAAAAAAAAAAAAAAAAAAAAAAAAAAAAAAAAAAAAAAAAAAAAAAAAAAAAAAAAAAAAAAAAAAAAAAAAAAAAAAAAAAAAAAAAAAAAAAAAAAAAAAAAAAAAAAAAAAAAAAAAAAAAAAAAAAAAAAAAAAAAAAAAAAAAAAAAAAAAAAAAAAAAAAAAAAAAAAAAAAAAAAAAAAAAAAAAAAAAAAAAAAAAAAAAAAAAAAAAAAAAAAAAAAAAAAAAAAAAAAAAAAAAAAAAAAAAAAAAAAAAAAAAAAAAAAAAAAAAAAAAAAAAAAAAAAAAAAAAAAAAAAAAAAAAAAAAAAAAAAAAAAAAAAAAAAAAAAAAAAAAAAAAAAAAAAAAAAAAAAAAAAAAAAAAAAAAAAAAAAAAAAAAAAAAAAAAAAAAAAAAAAAAAAAAAAAAAAAAAAAAAAAAAAAAAAAAAAAAAAAAAAAAAAAAAAAAAAAAAAAAAAAAAAAAAAAAAAAAAAAAAAAAAAAAAAAAAAAAAAAAAAAAAAAAAAAAAAAAAAAAAAAAAAAAAAAAAAAAAAAAAAAAAAAAAAAAAAAAAAAAAAAAAAAAAAAAAAAAAAAAAAAAAAAAAAAAAAAAAAAAAAAAAAAAAAAAAAAAAAAAAAAAAAAAAAAAAAAAAAAAAAAAAAAAAAAAAAAAAAAAAAAAAAAAAAAAAAAAAAAAAAAAAAAAAAAAAAAAAAAAAAAAAAAAAAAAAAAAAAAAAAAAAAAAAAAAAAAAAAAAAAAAAAAAAAAAAAAAAAAAAAAAAAAAAAAAAAAAAAAAAAAAAAAAAAAAAAAAAAAAAAAAAAAAAAAAAAAAAAAAAAAAAAAAAAAAAAAAAAAAAAAAAAAAAAAAAAAAAAAAAAAAAAAAAAAAAAAAAAAAAAAAAAAAAAAAAAAAAAAAAAAAAAAAAAAAAAAAAAAAAAAAAAAAAAAAAAAAAAAAAAAAAAAAAAAAAAAAAAAAAAAAAAAAAAAAAAAAAAAAAAAAAAAAAAAAAAAAAAAAAAAAAAAAAAAAAAAAAAAAAAAAAAAAAAAAAAAAAAAAAAAAAAAAAAAAAAAAAAAAAAAAAAAAAAAAAAAAAAAAAAAAAAAAAAAAAAAAAAAAAAAAAAAAAAAAAAAAAAAAAAAAAAAAAAAAAAAAAAAAAAAAAAAAAAAAAAAAAAAAAAAAAAAAAAAAAAAAAAAAAAAAAAAAAAAAAAAAAAAAAAAAAAAAAAAAAAAAAAAAAAAAAAAAAAAAAAAAAAAAAAAAAAAAAAAAAAAAAAAAAAAAAAAAAAAAAAAAAAAAAAAAAAAAAAAAAAAAAAAAAAAAAAAAAAAAAAAAAAAAAAAAAAAAAAAAAAAAAAAAAAAAAAAAAAAAAAAAAAAAAAAAAAAAAAAAAAAAAAAAAAAAAAAAAAAAAAAAAAAAAAAAAAAAAAAAAAAAAAAAAAAAAAAAAAAAAAAAAAAAAAAAAAAAAAAAAAAAAAAAAAAAAAAAAAAAAAAAAAAAAAAAAAAAAAAAAAAAAAAAAAAAAAAAAAAAAAAAAAAAAAAAAAAAAAAAAAAAAAAAAAAAAAAAAAAAAAAAAAAAAAAAAAAAAAAAAAAAAAAAAAAAAAAAAAAAAAAAAAAAAAAAAAAAAAAAAAAAAAAAAAAAAAAAAAAAAAAAAAAAAAAAAAAAAAAAAAAAAAAAAAAAAAAAAAAAAAAAAAAAAAAAAAAAAAAAAAAAAAAAAAAAAAAAAAAAAAAAAAAAAAAAAAAAAAAAAAAAAAAAAAAAAAAAAAAAAAAAAAAAAAAAAAAAAAAAAAAAAAAAAAAAAAAAAAAAAAAAAAAAAAAAAAAAAAAAAAAAAAAAAAAAAAAAAAAAAAAAAAAAAAAAAAAAAAAAAAAAAAAAAAAAAAAAAAAAAAAAAAAAAAAAAAAAAAAAAAAAAAAAAAAAAAAAAAAAAAAAAAAAAAAAAAAAAAAAAAAAAAAAAAAAAAAAAAAAAAAAAAAAAAAAAAAAAAAAAAAAAAAAAAAAAAAAAAAAAAAAAAAAAAAAAAAAAAAAAAAAAAAAAAAAAAAAAAAAAAAAAAAAAAAAAAAAAAAAAAAAAAAAAAAAAAAAAAAAAAAAAAAAAAAAAAAAAAAAAAAAAAAAAAAAAAAAAAAAAAAAAAAAAAAAAAAAAAAAAAAAAAAAAAAAAAAAAAAAAAAAAAAAAAAAAAAAAAAAAAAAAAAAAAAAAAAAAAAAAAAAAAAAAAAAAAAAAAAAAAAAAAAAAAAAAAAAAAAAAAAAAAAAAAAAAAAAAAAAAAAAAAAAAAAAAAAAAAAAAAAAAAAAAAAAAAAAAAAAAAAAAAAAAAAAAAAAAAAAAAAAAAAAAAAAAAAAAAAAAAAAAAAAAAAAAAAAAAAAAAAAAAAAAAAAAAAAAAAAAAAAAAAAAAAAAAAAAAAAAAAAAAAAAAAAAAAAAAAAAAAAAAAAAAAAAAAAAAAAAAAAAAAAAAAAAAAAAAAAAAAAAAAAAAAAAAAAAAAAAAAAAAAAAAAAAAAAAAAAAAAAAAAAAAAAAAAAAAAAAAAAAAAAAAAAAAAAAAAAAAAAAAAAAAAAAAAAAAAAAAAAAAAAAAAAAAAAAAAAAAAAAAAAAAAAAAAAAAAAAAAAAAAAAAAAAAAAAAAAAAAAAAAAAAAAAAAAAAAAAAAAAAAAAAAAAAAAAAAAAAAAAAAAAAAAAAAAAAAAAAAAAAAAAAAAAAAAAAAAAAAAAAAAAAAAAAAAAAAAAAAAAAAAAAAAAAAAAAAAAAAAAAAAAAAAAAAAAAAAAAAAAAAAAAAAAAAAAAAAAAAAAAAAAAAAAAAAAAAAAAAAAAAAAAAAAAAAAAAAAAAAAAAAAAAAAAAAAAAAAAAAAAAAAAAAAAAAAAAAAAAAAAAAAAAAAAAAAAAAAAAAAAAAAAAAAAAAAAAAAAAAAAAAAAAAAAAAAAAAAAAAAAAAAAAAAAAAAAAAAAAAAAAAAAAAAAAAAAAAAAAAAAAAAAAAAAAAAAAAAAAAAAAAAAAAAAAAAAAAAAAAAAAAAAAAAAAAAAAAAAAAAAAAAAAAAAAAAAAAAAAAAAAAAAAAAAAAAAAAAAAAAAAAAAAAAAAAAAAAAAAAAAAAAAAAAAAAAAAAAAAAAAAAAAAAAAAAAAAAAAAAAAAAAAAAAAAAAAAAAAAAAAAAAAAAAAAAAAAAAAAAAAAAAAAAAAAAAAAAAAAAAAAAAAAAAAAAAAAAAAAAAAPZYQNCU+hXarZxr2VvOExW2dPZPIQjroN4A0eMEA/TVLoPtvgYZQqh8uqec6riqylQZ1FGA4Vy+Bs01Z4mcFV/Rjn4=</c2pa:manifest></metadata><rect width="760" height="250" fill="#ffffff"/><circle cx="110.0" cy="95.0" r="55.0" fill="none" stroke="#111111" stroke-width="2.6"/><path d="M 55.0 95.0 A 55.0 16.5 0 0 1 165.0 95.0" fill="none" stroke="#111111" stroke-width="1.8" stroke-dasharray="7 7" opacity="0.6"/><path d="M 55.0 95.0 A 55.0 16.5 0 0 0 165.0 95.0" fill="none" stroke="#111111" stroke-width="2.3"/><line x1="110.0" y1="40.0" x2="110.0" y2="150.0" stroke="#111111" stroke-width="1.8199999999999998" stroke-linecap="round" stroke-dasharray="7 7" opacity="0.6"/><circle cx="110.0" cy="95.0" r="4.2" fill="#111111" stroke="#111111" stroke-width="0"/><text x="110.0" y="185.0" font-family="DejaVu Sans, Helvetica, Arial, sans-serif" font-size="19" text-anchor="middle" fill="#111111" font-weight="bold">Alice</text><circle cx="650.0" cy="95.0" r="55.0" fill="none" stroke="#111111" stroke-width="2.6"/><path d="M 595.0 95.0 A 55.0 16.5 0 0 1 705.0 95.0" fill="none" stroke="#111111" stroke-width="1.8" stroke-dasharray="7 7" opacity="0.6"/><path d="M 595.0 95.0 A 55.0 16.5 0 0 0 705.0 95.0" fill="none" stroke="#111111" stroke-width="2.3"/><line x1="650.0" y1="40.0" x2="650.0" y2="150.0" stroke="#111111" stroke-width="1.8199999999999998" stroke-linecap="round" stroke-dasharray="7 7" opacity="0.6"/><circle cx="650.0" cy="95.0" r="4.2" fill="#111111" stroke="#111111" stroke-width="0"/><text x="650.0" y="185.0" font-family="DejaVu Sans, Helvetica, Arial, sans-serif" font-size="19" text-anchor="middle" fill="#111111" font-weight="bold">Bob</text><path d="M 175.0 95.0 L 178.4 91.9 L 181.8 89.1 L 185.2 86.9 L 188.7 85.5 L 192.1 85.0 L 195.5 85.5 L 198.9 86.9 L 202.3 89.1 L 205.8 91.9 L 209.2 95.0 L 212.6 98.1 L 216.0 100.9 L 219.4 103.1 L 222.8 104.5 L 226.2 105.0 L 229.7 104.5 L 233.1 103.1 L 236.5 100.9 L 239.9 98.1 L 243.3 95.0 L 246.8 91.9 L 250.2 89.1 L 253.6 86.9 L 257.0 85.5 L 260.4 85.0 L 263.8 85.5 L 267.2 86.9 L 270.7 89.1 L 274.1 91.9 L 277.5 95.0 L 280.9 98.1 L 284.3 100.9 L 287.8 103.1 L 291.2 104.5 L 294.6 105.0 L 298.0 104.5 L 301.4 103.1 L 304.8 100.9 L 308.2 98.1 L 311.7 95.0 L 315.1 91.9 L 318.5 89.1 L 321.9 86.9 L 325.3 85.5 L 328.8 85.0 L 332.2 85.5 L 335.6 86.9 L 339.0 89.1 L 342.4 91.9 L 345.8 95.0 L 349.2 98.1 L 352.7 100.9 L 356.1 103.1 L 359.5 104.5 L 362.9 105.0 L 366.3 104.5 L 369.8 103.1 L 373.2 100.9 L 376.6 98.1 L 380.0 95.0 L 383.4 91.9 L 386.8 89.1 L 390.2 86.9 L 393.7 85.5 L 397.1 85.0 L 400.5 85.5 L 403.9 86.9 L 407.3 89.1 L 410.8 91.9 L 414.2 95.0 L 417.6 98.1 L 421.0 100.9 L 424.4 103.1 L 427.8 104.5 L 431.2 105.0 L 434.7 104.5 L 438.1 103.1 L 441.5 100.9 L 444.9 98.1 L 448.3 95.0 L 451.8 91.9 L 455.2 89.1 L 458.6 86.9 L 462.0 85.5 L 465.4 85.0 L 468.8 85.5 L 472.2 86.9 L 475.7 89.1 L 479.1 91.9 L 482.5 95.0 L 485.9 98.1 L 489.3 100.9 L 492.8 103.1 L 496.2 104.5 L 499.6 105.0 L 503.0 104.5 L 506.4 103.1 L 509.8 100.9 L 513.2 98.1 L 516.7 95.0 L 520.1 91.9 L 523.5 89.1 L 526.9 86.9 L 530.3 85.5 L 533.8 85.0 L 537.2 85.5 L 540.6 86.9 L 544.0 89.1 L 547.4 91.9 L 550.8 95.0 L 554.2 98.1 L 557.7 100.9 L 561.1 103.1 L 564.5 104.5 L 567.9 105.0 L 571.3 104.5 L 574.8 103.1 L 578.2 100.9 L 581.6 98.1 L 585.0 95.0" fill="none" stroke="#777777" stroke-width="2.5" stroke-linecap="round" stroke-linejoin="round" stroke-dasharray="7 6"/><text x="380.0" y="70.0" font-family="DejaVu Sans, Helvetica, Arial, sans-serif" font-size="16" text-anchor="middle" fill="#777777" font-weight="normal">1,000 km apart</text><text x="210.0" y="150.0" font-family="DejaVu Sans, Helvetica, Arial, sans-serif" font-size="19" text-anchor="middle" fill="#111111" font-weight="bold">0 · 0</text><text x="285.0" y="150.0" font-family="DejaVu Sans, Helvetica, Arial, sans-serif" font-size="19" text-anchor="middle" fill="#111111" font-weight="bold">1 · 1</text><text x="360.0" y="150.0" font-family="DejaVu Sans, Helvetica, Arial, sans-serif" font-size="19" text-anchor="middle" fill="#111111" font-weight="bold">1 · 1</text><text x="435.0" y="150.0" font-family="DejaVu Sans, Helvetica, Arial, sans-serif" font-size="19" text-anchor="middle" fill="#111111" font-weight="bold">0 · 0</text><text x="510.0" y="150.0" font-family="DejaVu Sans, Helvetica, Arial, sans-serif" font-size="19" text-anchor="middle" fill="#111111" font-weight="bold">1 · 1</text><text x="380.0" y="180.0" font-family="DejaVu Sans, Helvetica, Arial, sans-serif" font-size="15" text-anchor="middle" fill="#777777" font-weight="normal">each run: always the same</text><text x="380.0" y="232.0" font-family="DejaVu Sans, Helvetica, Arial, sans-serif" font-size="17" text-anchor="middle" fill="#777777" font-weight="normal">Each side alone sees random 0s and 1s. The link shows only when they compare.</text></svg>